<svg width="40" height="40" viewBox="0 0 40 40" fill="none" xmlns="http://www.w3.org/2000/svg">
<path d="M34.9396 5.30116H31.5661V1.92773C31.5661 0.86742 30.6986 0 29.6388 0H5.0601C3.99987 0 3.13245 0.86742 3.13245 1.92773V32.771C3.13245 33.8313 3.99987 34.6988 5.06018 34.6988H8.43369V38.0723C8.43369 39.1325 9.30072 40 10.3614 40H26.7465C27.8062 40 29.306 39.4053 30.0776 38.6791L35.4626 33.6102C36.2351 32.8839 36.8664 31.4217 36.8664 30.3615L36.8674 7.22905C36.8673 6.16866 35.9998 5.30116 34.9396 5.30116ZM8.43353 7.22897V33.253H5.0601C4.79893 33.253 4.57822 33.0323 4.57822 32.7711V1.92773C4.57822 1.66656 4.79893 1.44586 5.0601 1.44586H29.6389C29.8996 1.44586 30.1208 1.66656 30.1208 1.92773V5.30124H10.3613C9.30056 5.30124 8.43353 6.16866 8.43353 7.22897ZM34.4717 32.5575L29.0866 37.626C28.9763 37.7297 28.8326 37.8313 28.674 37.9281V33.4939C28.674 33.1628 28.8076 32.8649 29.0278 32.6433C29.25 32.4231 29.5478 32.2892 29.8789 32.2892H34.7006C34.6258 32.3907 34.5493 32.4842 34.4717 32.5575ZM35.4205 30.3613C35.4205 30.5045 35.3944 30.6703 35.355 30.8432H29.8788C28.4162 30.8461 27.2312 32.0312 27.2282 33.4938V38.4957C27.0562 38.5305 26.8904 38.554 26.7463 38.554H10.3613V38.5541C10.0995 38.5541 9.87939 38.3334 9.87939 38.0722V7.22889C9.87939 6.96772 10.0996 6.74702 10.3613 6.74702H34.9395C35.2007 6.74702 35.4214 6.96772 35.4214 7.22889L35.4205 30.3613Z" fill="#E22A2A"/>
<path d="M29.639 12.0481H15.6632C15.2637 12.0481 14.9403 12.3715 14.9403 12.771C14.9403 13.1705 15.2637 13.4939 15.6632 13.4939H29.639C30.0381 13.4939 30.3619 13.1705 30.3619 12.771C30.3619 12.3715 30.0381 12.0481 29.639 12.0481Z" fill="#E22A2A"/>
<path d="M29.639 21.6868H15.6632C15.2637 21.6868 14.9403 22.0101 14.9403 22.4097C14.9403 22.8092 15.2637 23.1325 15.6632 23.1325H29.639C30.0381 23.1325 30.3619 22.8092 30.3619 22.4097C30.3619 22.01 30.0381 21.6868 29.639 21.6868Z" fill="#E22A2A"/>
<path d="M23.374 26.5061H15.6632C15.2637 26.5061 14.9403 26.8295 14.9403 27.229C14.9403 27.6285 15.2637 27.9519 15.6632 27.9519H23.374C23.773 27.9519 24.0964 27.6285 24.0964 27.229C24.0964 26.8295 23.773 26.5061 23.374 26.5061Z" fill="#E22A2A"/>
</svg>
