<svg width="40" height="40" viewBox="0 0 40 40" fill="none" xmlns="http://www.w3.org/2000/svg">
<g clip-path="url(#clip0_1559_2381)">
<path d="M34.1419 5.85637C30.3959 2.10163 25.3052 -0.0114971 19.9962 0.00596677C8.95024 0.00596677 0 8.95621 0 20.0021C0 25.3024 2.1044 30.3931 5.85914 34.1391C13.6655 41.9455 26.3268 41.9455 34.1419 34.1391C41.957 26.3328 41.9483 13.6715 34.1419 5.85637ZM7.12527 32.9341C13.325 25.8263 24.1176 25.0928 31.2254 31.2925C31.8105 31.799 32.3606 32.3491 32.867 32.9341C25.7505 40.0245 14.2418 40.0245 7.12527 32.9341ZM34.0546 31.6331C27.1389 23.8704 15.2372 23.1893 7.47455 30.105C6.93317 30.5852 6.42671 31.0917 5.94646 31.6331C3.42292 28.5944 1.95596 24.8222 1.77259 20.8753H4.74145C5.2217 20.8753 5.61464 20.4824 5.61464 20.0021C5.61464 19.5219 5.2217 19.1289 4.74145 19.1289H1.77259C1.97342 14.8939 3.64122 10.8685 6.49657 7.73374L8.57477 9.81194C8.91532 10.1525 9.46543 10.1525 9.80598 9.81194C10.1465 9.4714 10.1465 8.92128 9.80598 8.58074L7.72777 6.50254C10.8625 3.64719 14.888 1.97065 19.123 1.77855V4.74741C19.123 5.22767 19.5159 5.62061 19.9962 5.62061C20.4764 5.62061 20.8694 5.22767 20.8694 4.74741V1.77855C25.1043 1.97939 29.1298 3.64719 32.2645 6.50254L30.1863 8.58074C29.8458 8.92128 29.8371 9.4714 30.1776 9.81194C30.5182 10.1525 31.0683 10.1612 31.4088 9.82067C31.4088 9.82067 31.4088 9.82068 31.4175 9.81194L33.4957 7.73374C36.3511 10.8685 38.0276 14.8939 38.2197 19.1289H35.2509C34.7706 19.1289 34.3777 19.5219 34.3777 20.0021C34.3864 20.4824 34.7706 20.8753 35.2596 20.8753H38.2285C38.0451 24.8222 36.5781 28.5944 34.0546 31.6331Z" fill="#E22A2A"/>
<path d="M22.8777 20.7008C22.5896 19.7316 21.8299 18.9806 20.8694 18.6925V9.16592C20.8694 8.68566 20.4764 8.29272 19.9962 8.29272C19.5159 8.29272 19.123 8.68566 19.123 9.16592V18.6925C17.5338 19.1727 16.6344 20.858 17.1146 22.4472C17.5949 24.0364 19.2802 24.9358 20.8694 24.4555C22.4586 23.9753 23.358 22.29 22.8777 20.7008ZM19.9962 22.8314C19.2976 22.8314 18.73 22.2638 18.73 21.5653C18.73 20.8667 19.2976 20.3079 19.9962 20.3079C20.6947 20.3079 21.2623 20.8754 21.2623 21.574C21.2623 22.2638 20.6947 22.8314 19.9962 22.8314Z" fill="#E22A2A"/>
</g>
<defs>
<clipPath id="clip0_1559_2381">
<rect width="40" height="40" fill="white"/>
</clipPath>
</defs>
</svg>
