<svg width="112" height="43" viewBox="0 0 112 43" fill="none" xmlns="http://www.w3.org/2000/svg">
<path d="M92.3856 0.0406227C86.7349 0.516426 81.4881 2.68907 77.2816 6.28339L76.7413 6.74773L76.2969 6.48403C73.9386 5.10248 70.0957 4.36871 65.7478 4.46617C57.4863 4.66107 48.3966 7.17767 38.4283 12.0332C31.3737 15.467 25.329 19.2849 16.4565 25.9232L15.0627 26.9608L14.4618 27.1213C11.4572 27.9066 7.84148 29.506 5.20043 31.2086C4.36215 31.7475 2.9886 32.7908 2.34728 33.3755C1.69585 33.9717 0.908076 34.8545 0.554589 35.3876C0.170802 35.9609 0.029407 36.3335 0.00920772 36.815C-0.0109916 37.2221 -0.0109916 37.2278 0.155653 37.3654C0.478841 37.6405 1.16057 37.7208 1.81704 37.5603C2.54927 37.3768 3.94302 36.6316 5.39232 35.6399C6.66487 34.7743 8.06873 33.708 12.2449 30.4462C12.856 29.9704 13.9417 29.1334 14.6638 28.5831C16.1232 27.471 15.9414 27.557 17.3957 27.2933C18.7592 27.041 19.6429 26.9608 21.0064 26.955C22.491 26.9493 23.1778 26.9894 24.1474 27.1499C25.7583 27.4194 27.0106 27.9697 27.7125 28.7149C27.96 28.9844 28.2781 29.4602 28.2781 29.5691C28.2781 29.592 28.1822 29.6665 28.066 29.7353C27.5762 30.0162 25.9198 31.1111 25.0563 31.7188C21.1276 34.4991 18.8703 36.8609 18.2997 38.7871C18.229 39.0164 18.2037 39.2743 18.2037 39.7329C18.2037 40.3119 18.2138 40.3864 18.3401 40.6501C18.7845 41.5788 19.7641 42.1807 21.5417 42.6164C22.8698 42.9489 23.4454 43.0005 25.627 43.0005C27.7075 42.9948 28.4347 42.9489 30.6263 42.6508C35.2772 42.0317 40.1502 40.6903 46.306 38.3342C55.7542 34.7227 64.0359 30.2513 69.3584 25.9002L69.8584 25.4875L70.0452 26.1353C70.7017 28.434 71.9288 30.3602 73.8275 32.0799C76.4433 34.4418 80.1701 36.0354 84.1039 36.4711C85.0634 36.58 87.1995 36.5915 88.27 36.494C92.6432 36.1157 96.9507 34.4876 100.314 31.9481C101.278 31.2201 101.768 30.7787 102.606 29.8729C103.581 28.8238 104.414 27.1614 104.505 26.0837C104.535 25.7397 104.525 25.6709 104.44 25.5391C104.263 25.2869 103.647 25.1665 103.344 25.327C103.177 25.413 103.182 25.6652 103.354 25.7168L103.465 25.7455L103.354 26.0321C103 26.978 102.081 28.3538 101.112 29.3971C99.4857 31.157 96.8396 32.8768 94.0268 34.0118C92.123 34.78 89.8102 35.3418 87.7953 35.5252C86.851 35.6112 84.4827 35.5596 83.6848 35.4392C81.2003 35.0609 79.1147 34.2985 77.2058 33.0602C74.08 31.0424 72.2065 28.285 71.5854 24.8053C71.5147 24.4098 71.4642 24.0887 71.4692 24.083C71.5248 24.0544 72.6408 22.9594 73.2064 22.3804C75.3475 20.1791 77.2917 17.4504 78.2714 15.2663C78.5642 14.6128 78.6147 14.5383 78.7511 14.5096C79.0086 14.458 81.9779 14.0911 84.0787 13.8561C90.0678 13.1682 94.1228 12.83 97.7637 12.7039C99.1322 12.658 103.864 12.6752 104.455 12.7325C104.621 12.744 105.01 12.7727 105.313 12.7899C106.066 12.83 107.373 12.9905 107.429 13.0536C107.555 13.1854 107.166 14.6071 106.828 15.2549C106.369 16.1434 105.505 17.2555 104.98 17.6453C104.768 17.8001 104.732 17.8517 104.732 18.0065C104.732 18.2071 104.818 18.2817 105.136 18.3562C105.455 18.4364 105.813 18.3848 106.616 18.1498C108.484 17.6052 109.722 17.0148 110.686 16.2007C110.913 16.0116 111.131 15.8568 111.176 15.8568C111.464 15.8568 111.873 15.3523 111.959 14.8937C112.075 14.2517 111.944 13.8733 111.555 13.73C111.454 13.6899 111.126 13.5122 110.817 13.3287C110.514 13.1453 110.025 12.9045 109.732 12.7899L109.202 12.5835L109.196 11.6261C109.196 10.7949 109.176 10.5886 109.065 10.0669C108.469 7.33818 106.682 4.7356 104.177 2.93557C103.606 2.52856 102.42 1.86358 101.627 1.50816C100.066 0.808788 98.4404 0.350182 96.7032 0.115147C95.8952 0.0062294 93.2895 -0.0396309 92.3856 0.0406227ZM96.577 1.09542C97.6021 1.233 98.2889 1.38778 99.1069 1.66294C102.612 2.84958 105.091 4.98783 106.596 8.12354C107.04 9.05795 107.424 10.365 107.485 11.1733C107.5 11.3682 107.52 11.6777 107.535 11.8669L107.56 12.2051L107.272 12.165C103.98 11.7236 97.6576 11.758 91.6534 12.2453C88.8608 12.4746 84.6493 12.9217 80.8569 13.3975C79.8217 13.5294 78.9581 13.6211 78.943 13.6039C78.9278 13.5867 78.9531 13.4491 78.9985 13.2943C79.1046 12.9217 79.2207 12.1535 79.2561 11.5574C79.3419 10.2905 78.9329 8.98343 78.1754 8.08915L77.9532 7.82545L78.1451 7.64201C81.0286 4.90757 84.6493 2.87825 88.573 1.78906C89.8809 1.42791 91.4514 1.14701 92.8906 1.00943C93.6632 0.940636 95.7892 0.986496 96.577 1.09542ZM67.6667 5.25726C70.1563 5.30885 72.8074 5.79039 74.3729 6.4783C74.8728 6.69614 75.7161 7.16047 75.8979 7.31525L76.0141 7.4127L75.7919 7.63628C73.4841 9.9637 72.1964 11.7523 71.1107 14.137C70.9289 14.5326 70.7774 14.8593 70.7724 14.8708C70.7673 14.8765 69.823 15.06 68.6716 15.2778C65.4044 15.8969 61.3494 16.7625 59.2689 17.2842C58.7285 17.416 58.7336 17.4046 59.4608 16.7797C60.1475 16.1893 60.496 15.7995 60.496 15.6217C60.496 15.4096 60.4404 15.358 60.1829 15.3179C59.8042 15.2549 59.4608 15.5071 58.3801 16.6536C57.2237 17.8861 57.4307 17.7428 56.4713 17.9893C52.9515 18.9008 47.7048 20.5346 45.3516 21.446C45.1445 21.5263 44.9678 21.5779 44.9577 21.5664C44.9072 21.5091 46.9574 18.6829 48.0734 17.2613C48.9066 16.2007 50.9215 13.8504 50.9973 13.8504C51.0983 13.8504 51.1185 13.6039 51.0225 13.5236C50.6892 13.2427 50.1034 13.7185 47.9926 15.9772C46.0484 18.0581 44.7759 19.5715 43.3569 21.4919L42.6297 22.4779L41.337 23.011C38.4838 24.1919 35.3176 25.6881 32.5048 27.1843C32.0099 27.448 31.5958 27.6659 31.5807 27.6659C31.5655 27.6659 31.7675 27.3104 32.0301 26.8748C34.3834 22.9709 38.2111 17.7485 41.3824 14.1141C42.6045 12.7211 43.6296 11.4026 43.6296 11.2421C43.6296 11.1962 43.574 11.1446 43.5033 11.1217C43.4023 11.093 43.3165 11.1389 43.1094 11.3109C42.7711 11.6032 41.2006 13.1682 40.6754 13.7357C40.4532 13.9765 40.125 14.3262 39.9432 14.5154C36.984 17.588 34.7772 20.2651 32.4139 23.6531C31.2525 25.3155 30.2374 26.955 29.5709 28.2506L29.2275 28.9156L28.9194 28.5601C28.2781 27.8206 27.4853 27.3506 26.1168 26.892C24.7281 26.4276 23.7333 26.2843 21.6578 26.2499C20.1176 26.2213 18.8147 26.2901 17.7391 26.462C17.5775 26.485 17.4412 26.5022 17.4361 26.4964C17.4159 26.4792 20.7084 24.0773 22.6728 22.6843C25.1573 20.9244 26.8288 19.8065 29.0608 18.3963C38.6101 12.3656 48.6087 8.08342 57.3903 6.26046C60.4909 5.61268 64.2632 5.18847 66.5053 5.23433C66.7679 5.23433 67.293 5.2458 67.6667 5.25726ZM77.3523 8.87451C77.5745 9.24139 77.7411 9.64841 77.8775 10.1242C78.0391 10.7261 78.0441 11.7179 77.8775 12.4115C77.7411 12.9676 77.4785 13.7759 77.4129 13.8217C77.3876 13.8389 76.9382 13.9192 76.4181 13.9937C75.8979 14.0682 74.9385 14.2115 74.2921 14.309C73.6457 14.4122 73.1003 14.481 73.0902 14.4638C73.0549 14.4294 73.5649 13.4376 73.9437 12.7899C74.3022 12.1822 74.7769 11.4714 75.2314 10.8694C75.6 10.3764 77.1099 8.63374 77.1705 8.63374C77.1907 8.63374 77.2715 8.74266 77.3523 8.87451ZM109.575 13.644C110.464 14.0338 110.762 14.2861 110.823 14.6988C110.858 14.9625 110.833 14.9912 110.116 15.4956C109.333 16.0402 108.772 16.3498 107.848 16.7453L107.51 16.8886L107.868 16.3842C108.293 15.7937 108.732 14.8192 108.949 14.0052C109.03 13.7013 109.106 13.4491 109.116 13.4491C109.121 13.4491 109.328 13.5351 109.575 13.644ZM76.8524 15.0943C75.8828 17.0492 73.9588 19.6403 71.8631 21.8186L71.338 22.3632L71.3683 21.4174C71.4137 20.1103 71.5753 19.0097 71.9187 17.6396C72.0853 16.9861 72.5247 15.6561 72.6257 15.4956C72.6762 15.4211 73.0448 15.3466 74.4082 15.1402C75.3526 14.9969 76.2514 14.8536 76.4029 14.8306C76.5544 14.802 76.7564 14.7791 76.8473 14.7733L77.014 14.7676L76.8524 15.0943ZM70.4189 15.8969C70.2825 16.2523 69.9291 17.6625 69.823 18.2645C69.5453 19.8008 69.4443 21.7671 69.5503 23.3779L69.5907 23.9913L68.7171 24.7308C63.4905 29.1563 55.941 33.3354 46.1797 37.1991C39.822 39.7157 34.3884 41.2578 29.5911 41.9056C27.7883 42.1463 27.0611 42.1979 25.2735 42.1979C23.4252 42.1979 22.7688 42.1349 21.6578 41.854C19.7843 41.3839 18.946 40.3578 19.3551 39.0278C19.8803 37.308 22.0466 35.0265 25.5512 32.5042C26.4501 31.8564 28.4397 30.5264 28.465 30.5551C28.4751 30.5608 28.369 30.8933 28.2327 31.2831C27.8186 32.4468 27.5863 33.4844 27.5358 34.373C27.5105 34.8144 27.5206 34.8717 27.6115 34.9634C27.758 35.1125 28.4296 35.1698 28.5963 35.0437C28.9346 34.7915 29.5507 32.9169 29.6921 31.6844C29.7527 31.157 29.7729 31.0997 30.3384 29.9417L30.7273 29.1449L31.9998 28.434C34.6762 26.9436 37.7667 25.4244 40.5744 24.2321C41.1047 24.0028 41.5844 23.7964 41.65 23.7677C41.7965 23.6989 41.8419 23.6129 41.0693 24.8168C38.8019 28.3423 37.6102 30.985 37.4233 32.8825C37.3324 33.8112 37.4536 33.9946 38.1657 34.0004C38.5848 34.0004 38.6151 33.9889 38.8575 33.8054C38.9989 33.6965 39.5089 33.1462 39.9937 32.5787C41.544 30.7729 42.9327 29.2022 43.5134 28.5945L44.079 28.0041L44.0487 28.3996C44.0235 28.778 44.0235 28.8067 44.1447 28.8926C44.3214 29.0245 44.7355 29.0703 44.9577 28.9901C45.3465 28.841 46.0333 27.7232 46.1848 27.0066C46.2302 26.7831 46.2908 26.5423 46.3262 26.4678C46.3918 26.3073 46.3918 26.3015 48.1795 25.1722C50.5428 23.6703 53.0879 21.8932 54.8351 20.5231C55.1785 20.2537 55.4411 20.0588 55.4209 20.0989C55.4007 20.1333 55.0977 20.5575 54.7442 21.039C52.5981 23.9626 50.568 27.2818 49.3611 29.8442C48.5431 31.5869 46.9877 35.5539 46.8918 36.1501C46.8564 36.3794 46.9271 36.4596 47.2351 36.5227C47.4876 36.58 47.6189 36.4654 47.7654 36.0583C48.2906 34.5851 50.5276 30.1366 52.1284 27.3735C52.5425 26.6569 52.8909 26.2499 53.7292 25.4932C54.2696 25.0002 55.0321 24.3926 55.4058 24.1461L55.6431 23.9913L55.3856 24.4958C55.0169 25.2123 54.8351 25.6996 54.7947 26.0436C54.7442 26.4334 54.8402 26.548 55.2543 26.6053C55.4967 26.6397 55.5825 26.6225 55.8097 26.5079C56.0572 26.376 62.4149 22.0594 62.7381 21.8015C62.9148 21.6581 62.9098 21.6696 62.4402 22.4206C61.7584 23.504 61.4504 24.1575 61.4151 24.576C61.3949 24.8111 61.41 24.8569 61.516 24.9372C61.6524 25.0346 62.0715 25.1091 62.218 25.0576C62.2685 25.0346 62.3139 24.9716 62.3139 24.9085C62.3139 24.7193 62.8391 23.8766 64.0056 22.1913C65.9649 19.3651 66.0356 19.2447 65.9094 19.0326C65.8791 18.9753 65.5458 18.9237 65.359 18.9466C65.2782 18.9524 64.3389 19.8753 64.0309 20.2422C63.6521 20.6893 62.4957 21.532 59.89 23.2346C57.658 24.6964 55.7996 25.8372 55.7996 25.7397C55.7996 25.7225 56.0067 25.3155 56.2592 24.8454C56.8046 23.8193 56.9056 23.5785 56.9106 23.3034C56.9106 22.9996 56.7793 22.8906 56.3905 22.8849C56.1026 22.8792 56.042 22.9021 55.6482 23.1601C55.1179 23.5155 54.3806 24.0658 54.0979 24.3238C53.9767 24.4327 53.8807 24.5015 53.8807 24.4843C53.8807 24.2779 57.7034 18.6543 57.966 18.4708C58.0923 18.3791 62.0463 17.4619 64.6873 16.9116C66.4447 16.5447 70.1765 15.8167 70.3633 15.8052C70.434 15.7995 70.4441 15.8224 70.4189 15.8969ZM55.7693 19.1931C52.689 21.6467 50.7195 23.0397 47.932 24.7308L46.6494 25.5047L46.508 25.413C46.4322 25.3614 46.2656 25.3155 46.1444 25.3155C45.9373 25.3155 45.8969 25.3442 45.5687 25.7111C45.2607 26.0607 44.3921 26.955 43.0488 28.3251C42.4227 28.9614 41.4481 29.9646 41.0289 30.4118C40.837 30.6181 40.3674 31.1111 39.9937 31.5067C39.62 31.9022 39.1554 32.3952 38.9585 32.6073C38.7666 32.8194 38.6 32.9685 38.5899 32.9456C38.5343 32.7621 39.4332 30.7041 40.2209 29.2137C41.034 27.6716 43.3064 23.9053 43.9932 22.9537C44.1245 22.776 44.4123 22.6499 46.3413 21.9562C47.7098 21.4632 49.8156 20.7639 51.2296 20.3282C52.2395 20.0186 55.8703 18.981 56.0218 18.9581C56.0471 18.9581 55.936 19.0613 55.7693 19.1931ZM13.0277 28.4914C13.0277 28.5086 12.5429 28.8926 11.9571 29.3512C11.3663 29.8041 10.4371 30.5264 9.89676 30.9564C5.16003 34.6825 2.92801 36.2303 1.49386 36.7807C1.09997 36.9297 1.05957 36.9354 1.05957 36.8437C1.05957 36.5513 1.81199 35.508 2.56947 34.7513C4.97823 32.3379 8.57876 30.1423 12.6237 28.6175C12.8307 28.5372 13.0075 28.4742 13.0176 28.4742C13.0226 28.4684 13.0277 28.4799 13.0277 28.4914Z" fill="#7B8990"/>
</svg>
