<svg width="14" height="14" viewBox="0 0 14 14" fill="none" xmlns="http://www.w3.org/2000/svg">
<path fill-rule="evenodd" clip-rule="evenodd" d="M8.57061 0.338661C8.42188 0.317342 8.2725 0.361312 8.15365 0.455913C8.03149 0.551847 7.95514 0.690419 7.93854 0.845646C7.90335 1.15943 8.12975 1.44324 8.44313 1.47854C10.6042 1.71971 12.284 3.40322 12.527 5.57107C12.5595 5.86153 12.8032 6.08072 13.094 6.08072C13.1159 6.08072 13.1371 6.07938 13.1591 6.07672C13.3111 6.06006 13.4465 5.98478 13.5421 5.86487C13.6371 5.74495 13.6802 5.59572 13.663 5.44316C13.3602 2.73835 11.2668 0.639121 8.57061 0.338661ZM8.6121 2.66C8.29474 2.60137 8.00327 2.8039 7.94286 3.11369C7.88244 3.42348 8.0856 3.72593 8.39433 3.78656C9.32384 3.96777 10.0416 4.68727 10.2235 5.61997V5.62063C10.2753 5.88912 10.5116 6.08431 10.7838 6.08431C10.8203 6.08431 10.8569 6.08098 10.894 6.07432C11.2028 6.01236 11.4059 5.71057 11.3455 5.40012C11.074 4.00707 10.0017 2.93115 8.6121 2.66ZM9.66675 9.06041C9.96774 8.88686 10.3077 8.69085 10.7365 8.78206C11.1249 8.86401 12.4488 9.9386 12.8113 10.311C13.049 10.5548 13.1811 10.8067 13.2017 11.0585C13.2375 12.0465 11.8951 13.1744 11.6507 13.3149C11.3261 13.5488 10.9483 13.6667 10.524 13.6667C10.0905 13.6667 9.60714 13.5435 9.07998 13.2976C6.21975 12.1038 1.85039 7.82072 0.695148 4.98267C0.215787 3.92606 0.212467 3.05466 0.687181 2.39978C0.876402 2.09266 1.9553 0.808871 2.92132 0.84951C3.17826 0.871495 3.4279 1.0034 3.67289 1.24324C4.04337 1.60632 5.09106 2.93408 5.17206 3.32381C5.26169 3.75685 5.06516 4.10128 4.89055 4.40374C4.85331 4.46875 4.80313 4.54591 4.74815 4.63044C4.53951 4.95126 4.2618 5.37828 4.36007 5.65088C5.0645 7.38036 6.6918 8.88932 8.42202 9.59817C8.68959 9.69542 9.11636 9.41573 9.43615 9.20615C9.51946 9.15155 9.59551 9.10171 9.65959 9.06453L9.66675 9.06041Z" fill="white"/>
</svg>
