<svg width="16" height="18" viewBox="0 0 16 18" fill="none" xmlns="http://www.w3.org/2000/svg">
<path d="M1.06667 18C0.477563 18 0 17.526 0 16.9412V1.05887C0 0.474101 0.477563 2.53111e-05 1.06667 2.53111e-05H7.872C8.2775 -0.0027502 8.64953 0.222929 8.832 0.582402L9.6 2.11769H14.9333C15.5224 2.11769 16 2.59174 16 3.17651V11.6471C16 12.2318 15.5224 12.7059 14.9333 12.7059H9.184C8.78234 12.7047 8.41541 12.4796 8.23467 12.1235L7.46667 10.5883H2.13333V16.9412C2.13333 17.526 1.65577 18 1.06667 18ZM2.13333 2.11769V8.47062H8.53333L9.6 10.5883H13.8667V4.23533H8.53333L7.46667 2.11769H2.13333Z" fill="#E22A2A"/>
</svg>
