<svg width="25" height="24" viewBox="0 0 25 24" fill="none" xmlns="http://www.w3.org/2000/svg">
<path fill-rule="evenodd" clip-rule="evenodd" d="M12.4421 2C7.1338 2 2.83057 6.20819 2.83057 11.3993C2.83057 16.5903 7.1338 20.7985 12.4421 20.7985C14.7125 20.7985 16.7989 20.0287 18.4435 18.7415L21.5676 21.7886L21.6507 21.8586C21.9408 22.0685 22.352 22.0446 22.6144 21.7873C22.9031 21.5043 22.9025 21.0459 22.6131 20.7636L19.5257 17.7523C21.0955 16.0794 22.0536 13.8487 22.0536 11.3993C22.0536 6.20819 17.7504 2 12.4421 2ZM12.4421 3.44774C16.9328 3.44774 20.5732 7.00776 20.5732 11.3993C20.5732 15.7908 16.9328 19.3508 12.4421 19.3508C7.95142 19.3508 4.311 15.7908 4.311 11.3993C4.311 7.00776 7.95142 3.44774 12.4421 3.44774Z" fill="white"/>
</svg>
