<svg width="16" height="16" viewBox="0 0 16 16" fill="none" xmlns="http://www.w3.org/2000/svg">
<path d="M15.1831 4.25092C15.0103 3.60831 14.5036 3.10175 13.8611 2.92871C12.6873 2.60754 7.992 2.60754 7.992 2.60754C7.992 2.60754 3.29691 2.60754 2.12311 2.91653C1.49295 3.08939 0.973938 3.6084 0.801086 4.25092C0.492188 5.42462 0.492188 7.85873 0.492188 7.85873C0.492188 7.85873 0.492188 10.3051 0.801086 11.4666C0.974121 12.1091 1.48059 12.6156 2.1232 12.7887C3.30926 13.1099 7.99219 13.1099 7.99219 13.1099C7.99219 13.1099 12.6873 13.1099 13.8611 12.8009C14.5037 12.628 15.0103 12.1214 15.1833 11.4789C15.4921 10.3051 15.4921 7.87109 15.4921 7.87109C15.4921 7.87109 15.5045 5.42462 15.1831 4.25092ZM6.49713 10.1075V5.61002L10.4015 7.85873L6.49713 10.1075Z" fill="#818F9B"/>
</svg>
